<mxfile host="Electron" modified="2024-05-23T09:23:29.270Z" agent="Mozilla/5.0 (X11; Linux x86_64) AppleWebKit/537.36 (KHTML, like Gecko) draw.io/24.4.0 Chrome/120.0.6099.109 Electron/28.1.0 Safari/537.36" etag="7V6irG31GlNjUtKwmNXo" version="24.4.0" type="device">
  <diagram name="Página-1" id="0R84nbDcEIhOmc_J-1IX">
    <mxGraphModel dx="1364" dy="843" grid="1" gridSize="10" guides="1" tooltips="1" connect="1" arrows="1" fold="1" page="1" pageScale="1" pageWidth="827" pageHeight="583" math="0" shadow="0">
      <root>
        <mxCell id="0" />
        <mxCell id="1" parent="0" />
        <mxCell id="dmVsvcYthLELyO5Nhqn--1" value="switch" style="ellipse;whiteSpace=wrap;html=1;fillColor=#dae8fc;strokeColor=none;" vertex="1" parent="1">
          <mxGeometry x="290" y="150" width="80" height="50" as="geometry" />
        </mxCell>
        <mxCell id="dmVsvcYthLELyO5Nhqn--2" value="switch" style="ellipse;whiteSpace=wrap;html=1;fillColor=#dae8fc;strokeColor=none;" vertex="1" parent="1">
          <mxGeometry x="430" y="180" width="80" height="50" as="geometry" />
        </mxCell>
        <mxCell id="dmVsvcYthLELyO5Nhqn--3" value="switch" style="ellipse;whiteSpace=wrap;html=1;fillColor=#dae8fc;strokeColor=none;" vertex="1" parent="1">
          <mxGeometry x="290" y="242" width="80" height="50" as="geometry" />
        </mxCell>
        <mxCell id="dmVsvcYthLELyO5Nhqn--4" value="endNode" style="rounded=0;whiteSpace=wrap;html=1;fillColor=#f8cecc;strokeColor=none;" vertex="1" parent="1">
          <mxGeometry x="180" y="90" width="70" height="40" as="geometry" />
        </mxCell>
        <mxCell id="dmVsvcYthLELyO5Nhqn--5" value="endNode" style="rounded=0;whiteSpace=wrap;html=1;fillColor=#f8cecc;strokeColor=none;" vertex="1" parent="1">
          <mxGeometry x="150" y="170" width="70" height="40" as="geometry" />
        </mxCell>
        <mxCell id="dmVsvcYthLELyO5Nhqn--6" value="endNode" style="rounded=0;whiteSpace=wrap;html=1;fillColor=#f8cecc;strokeColor=none;" vertex="1" parent="1">
          <mxGeometry x="540" y="130" width="70" height="40" as="geometry" />
        </mxCell>
        <mxCell id="dmVsvcYthLELyO5Nhqn--7" value="endNode" style="rounded=0;whiteSpace=wrap;html=1;fillColor=#f8cecc;strokeColor=none;" vertex="1" parent="1">
          <mxGeometry x="500" y="252" width="70" height="40" as="geometry" />
        </mxCell>
        <mxCell id="dmVsvcYthLELyO5Nhqn--8" value="endNode" style="rounded=0;whiteSpace=wrap;html=1;fillColor=#f8cecc;strokeColor=none;" vertex="1" parent="1">
          <mxGeometry x="180" y="252" width="70" height="40" as="geometry" />
        </mxCell>
        <mxCell id="dmVsvcYthLELyO5Nhqn--11" value="" style="endArrow=none;html=1;rounded=0;entryX=1;entryY=0.5;entryDx=0;entryDy=0;exitX=0;exitY=0;exitDx=0;exitDy=0;" edge="1" parent="1" source="dmVsvcYthLELyO5Nhqn--1" target="dmVsvcYthLELyO5Nhqn--4">
          <mxGeometry width="50" height="50" relative="1" as="geometry">
            <mxPoint x="390" y="460" as="sourcePoint" />
            <mxPoint x="440" y="410" as="targetPoint" />
          </mxGeometry>
        </mxCell>
        <mxCell id="dmVsvcYthLELyO5Nhqn--12" value="" style="endArrow=none;html=1;rounded=0;entryX=1;entryY=0.5;entryDx=0;entryDy=0;exitX=0;exitY=0.5;exitDx=0;exitDy=0;" edge="1" parent="1" source="dmVsvcYthLELyO5Nhqn--1" target="dmVsvcYthLELyO5Nhqn--5">
          <mxGeometry width="50" height="50" relative="1" as="geometry">
            <mxPoint x="312" y="167" as="sourcePoint" />
            <mxPoint x="260" y="120" as="targetPoint" />
          </mxGeometry>
        </mxCell>
        <mxCell id="dmVsvcYthLELyO5Nhqn--13" value="" style="endArrow=none;html=1;rounded=0;exitX=1;exitY=0.5;exitDx=0;exitDy=0;entryX=0;entryY=0.5;entryDx=0;entryDy=0;" edge="1" parent="1" source="dmVsvcYthLELyO5Nhqn--8" target="dmVsvcYthLELyO5Nhqn--3">
          <mxGeometry width="50" height="50" relative="1" as="geometry">
            <mxPoint x="390" y="460" as="sourcePoint" />
            <mxPoint x="440" y="410" as="targetPoint" />
          </mxGeometry>
        </mxCell>
        <mxCell id="dmVsvcYthLELyO5Nhqn--14" value="" style="endArrow=none;html=1;rounded=0;exitX=1;exitY=1;exitDx=0;exitDy=0;entryX=0.5;entryY=0;entryDx=0;entryDy=0;" edge="1" parent="1" source="dmVsvcYthLELyO5Nhqn--2" target="dmVsvcYthLELyO5Nhqn--7">
          <mxGeometry width="50" height="50" relative="1" as="geometry">
            <mxPoint x="390" y="460" as="sourcePoint" />
            <mxPoint x="440" y="410" as="targetPoint" />
          </mxGeometry>
        </mxCell>
        <mxCell id="dmVsvcYthLELyO5Nhqn--15" value="" style="endArrow=none;html=1;rounded=0;entryX=0;entryY=0.5;entryDx=0;entryDy=0;exitX=1;exitY=0;exitDx=0;exitDy=0;" edge="1" parent="1" source="dmVsvcYthLELyO5Nhqn--2" target="dmVsvcYthLELyO5Nhqn--6">
          <mxGeometry width="50" height="50" relative="1" as="geometry">
            <mxPoint x="390" y="460" as="sourcePoint" />
            <mxPoint x="440" y="410" as="targetPoint" />
          </mxGeometry>
        </mxCell>
        <mxCell id="dmVsvcYthLELyO5Nhqn--16" value="" style="endArrow=none;html=1;rounded=0;exitX=1;exitY=0.5;exitDx=0;exitDy=0;exitPerimeter=0;entryX=0;entryY=0.5;entryDx=0;entryDy=0;fillColor=#ffe6cc;strokeColor=#d79b00;strokeWidth=5;" edge="1" parent="1" source="dmVsvcYthLELyO5Nhqn--1" target="dmVsvcYthLELyO5Nhqn--2">
          <mxGeometry width="50" height="50" relative="1" as="geometry">
            <mxPoint x="390" y="460" as="sourcePoint" />
            <mxPoint x="440" y="410" as="targetPoint" />
          </mxGeometry>
        </mxCell>
        <mxCell id="dmVsvcYthLELyO5Nhqn--17" value="" style="endArrow=none;html=1;rounded=0;entryX=0;entryY=1;entryDx=0;entryDy=0;exitX=1;exitY=0.5;exitDx=0;exitDy=0;fillColor=#ffe6cc;strokeColor=#d79b00;strokeWidth=5;" edge="1" parent="1" source="dmVsvcYthLELyO5Nhqn--3" target="dmVsvcYthLELyO5Nhqn--2">
          <mxGeometry width="50" height="50" relative="1" as="geometry">
            <mxPoint x="390" y="460" as="sourcePoint" />
            <mxPoint x="440" y="410" as="targetPoint" />
          </mxGeometry>
        </mxCell>
        <mxCell id="dmVsvcYthLELyO5Nhqn--18" value="" style="curved=1;endArrow=none;html=1;rounded=0;endFill=0;fillColor=#d5e8d4;strokeColor=#82b366;strokeWidth=3;dashed=1;" edge="1" parent="1">
          <mxGeometry width="50" height="50" relative="1" as="geometry">
            <mxPoint x="260" y="100" as="sourcePoint" />
            <mxPoint x="530" y="140" as="targetPoint" />
            <Array as="points">
              <mxPoint x="310" y="140" />
              <mxPoint x="360" y="170" />
              <mxPoint x="430" y="190" />
              <mxPoint x="470" y="190" />
              <mxPoint x="490" y="170" />
            </Array>
          </mxGeometry>
        </mxCell>
        <mxCell id="dmVsvcYthLELyO5Nhqn--19" value="" style="curved=1;endArrow=none;html=1;rounded=0;endFill=0;fillColor=#d80073;strokeColor=#A50040;strokeWidth=3;dashed=1;" edge="1" parent="1">
          <mxGeometry width="50" height="50" relative="1" as="geometry">
            <mxPoint x="230" y="200" as="sourcePoint" />
            <mxPoint x="260" y="260" as="targetPoint" />
            <Array as="points">
              <mxPoint x="290" y="180" />
              <mxPoint x="410" y="200" />
              <mxPoint x="460" y="210" />
              <mxPoint x="420" y="230" />
              <mxPoint x="370" y="240" />
            </Array>
          </mxGeometry>
        </mxCell>
        <mxCell id="dmVsvcYthLELyO5Nhqn--20" value="Teleportación" style="text;html=1;align=center;verticalAlign=middle;whiteSpace=wrap;rounded=0;" vertex="1" parent="1">
          <mxGeometry x="320" y="110" width="90" height="30" as="geometry" />
        </mxCell>
        <mxCell id="dmVsvcYthLELyO5Nhqn--21" value="CHSH" style="text;html=1;align=center;verticalAlign=middle;whiteSpace=wrap;rounded=0;" vertex="1" parent="1">
          <mxGeometry x="230" y="200" width="60" height="30" as="geometry" />
        </mxCell>
      </root>
    </mxGraphModel>
  </diagram>
</mxfile>
